<?xml version="1.0" encoding="utf-8"?>
<!-- Generator: Adobe Illustrator 16.0.0, SVG Export Plug-In . SVG Version: 6.00 Build 0)  -->
<!DOCTYPE svg PUBLIC "-//W3C//DTD SVG 1.1//EN" "http://www.w3.org/Graphics/SVG/1.1/DTD/svg11.dtd">
<svg version="1.1" id="Layer_1" xmlns="http://www.w3.org/2000/svg" xmlns:xlink="http://www.w3.org/1999/xlink" x="0px" y="0px"
	 width="187.525px" height="227px" viewBox="0 0 187.525 227" enable-background="new 0 0 187.525 227" xml:space="preserve">
<g>
	<g>
		<path fill="#342214" d="M133.4,55.695c-12.975-4.214-28.061,11.081-29.805,23.124c-2.564,17.696,16.131,25.854,30.875,21.902
			c11.402-3.056,18.969-13.682,17.475-25.45c-1.471-11.589-11.141-19.596-22.729-19.182c-3.215,0.115-3.227,5.115,0,5
			c19.598-0.701,23.902,25.216,7.373,33.537c-11.375,5.727-28.342,0.712-28.193-13.718c0.102-9.728,13.549-23.681,23.68-20.392
			C135.146,61.515,136.455,56.687,133.4,55.695L133.4,55.695z"/>
	</g>
</g>
<g>
	<g>
		<path fill="#342214" d="M123.441,99.575c-1.279,16.214-1.859,32.445-1.865,48.708c-0.002,6.107,0.312,12.199,0.586,18.301
			c0.111,2.523-0.311,6.715,1.479,8.771c1.168,1.34,3.018,0.674,3.926-0.506c0.252-0.328,0.35-0.721,0.449-1.111
			c0.797-3.127-4.025-4.453-4.822-1.33c0.02-0.027,0.037-0.055,0.057-0.082c1.311-0.17,2.617-0.338,3.926-0.506
			c1.078,1.236,0.229-1.334,0.152-2.344c-0.135-1.787-0.207-3.576-0.264-5.365c-0.209-6.553-0.504-13.074-0.482-19.637
			c0.045-14.988,0.682-29.958,1.857-44.899C128.695,96.358,123.693,96.383,123.441,99.575L123.441,99.575z"/>
	</g>
</g>
<g>
	<g>
		<path fill="#342214" d="M127.484,172.312c-1.533-2.836-5.852-0.312-4.314,2.521l0,0"/>
	</g>
</g>
<g>
	<g>
		<path fill="#342214" d="M123.412,115.487c-12.83,4.651-25.881,0.028-33.511-11.185c-1.802-2.648-6.137-0.15-4.317,2.523
			c8.817,12.958,24.156,18.921,39.158,13.483C127.748,119.217,126.451,114.385,123.412,115.487L123.412,115.487z"/>
	</g>
</g>
<g>
	<g>
		<g>
			<defs>
				<path id="SVGID_1_" d="M21,0c-1.104,0-2,0.895-2,1.997v221.007c0,1.102,0.887,1.996,2,1.996h6c1.104,0,2-0.896,2-1.996V1.997
					C29,0.894,28.113,0,27,0H21z"/>
			</defs>
			<clipPath id="SVGID_2_">
				<use xlink:href="#SVGID_1_"  overflow="visible"/>
			</clipPath>
			<rect x="14" y="-5" clip-path="url(#SVGID_2_)" fill="#372212" width="20" height="235"/>
		</g>
	</g>
</g>
<g>
	<g>
		<g>
			<defs>
				
					<rect id="SVGID_3_" x="37.5" y="11.501" transform="matrix(-0.7071 -0.7071 0.7071 -0.7071 44.2658 98.3364)" width="10" height="56.998"/>
			</defs>
			<clipPath id="SVGID_4_">
				<use xlink:href="#SVGID_3_"  overflow="visible"/>
			</clipPath>
			<rect x="13.812" y="11.312" clip-path="url(#SVGID_4_)" fill="#372212" width="57.376" height="57.377"/>
		</g>
	</g>
</g>
<g>
	<g>
		<g>
			<defs>
				<path id="SVGID_5_" d="M93.863,15c-1.658,0-4.348,0-6.004,0H5.999C4.895,15,4,15.888,4,17v6c0,1.104,0.896,2,1.995,2h123.011
					c1.102,0,1.994-0.888,1.994-2v-6c0-1.104-0.896-2-1.99-2H93.863z"/>
			</defs>
			<clipPath id="SVGID_6_">
				<use xlink:href="#SVGID_5_"  overflow="visible"/>
			</clipPath>
			<rect x="-1" y="10" clip-path="url(#SVGID_6_)" fill="#372212" width="137" height="20"/>
		</g>
	</g>
</g>
<g>
	<g>
		<g>
			<defs>
				<path id="SVGID_7_" d="M2.003,221C1.449,221,1,221.443,1,222v3c0,0.553,0.45,1,1.003,1h44.993c0.554,0,1.003-0.443,1.003-1v-3
					c0-0.553-0.45-1-1.003-1H2.003z"/>
			</defs>
			<clipPath id="SVGID_8_">
				<use xlink:href="#SVGID_7_"  overflow="visible"/>
			</clipPath>
			<rect x="-4" y="216" clip-path="url(#SVGID_8_)" fill="#372212" width="57" height="15"/>
		</g>
	</g>
</g>
<g>
	<g>
		<g>
			<defs>
				<rect id="SVGID_9_" x="127" y="23" width="4" height="34"/>
			</defs>
			<clipPath id="SVGID_10_">
				<use xlink:href="#SVGID_9_"  overflow="visible"/>
			</clipPath>
			<rect x="122" y="18" clip-path="url(#SVGID_10_)" fill="#372212" width="14" height="44"/>
		</g>
	</g>
</g>
<g>
	<g>
		<path fill="#FFFFFF" d="M258.667,169.5c3.225,0,3.225-5,0-5S255.442,169.5,258.667,169.5L258.667,169.5z"/>
	</g>
</g>
</svg>
