<?xml version="1.0" encoding="utf-8"?>
<!-- Generator: Adobe Illustrator 16.0.0, SVG Export Plug-In . SVG Version: 6.00 Build 0)  -->
<!DOCTYPE svg PUBLIC "-//W3C//DTD SVG 1.1//EN" "http://www.w3.org/Graphics/SVG/1.1/DTD/svg11.dtd">
<svg version="1.1" id="Layer_1" xmlns="http://www.w3.org/2000/svg" xmlns:xlink="http://www.w3.org/1999/xlink" x="0px" y="0px"
	 width="187.525px" height="227px" viewBox="0 0 187.525 227" enable-background="new 0 0 187.525 227" xml:space="preserve">
<g>
	<g>
		<path fill="#342214" d="M133.4,56.695c-12.975-4.214-28.061,11.081-29.805,23.124c-2.564,17.696,16.131,25.854,30.875,21.902
			c11.402-3.056,18.969-13.682,17.475-25.45c-1.471-11.589-11.141-19.596-22.729-19.182c-3.215,0.115-3.227,5.115,0,5
			c19.596-0.701,23.902,25.216,7.373,33.537c-11.375,5.727-28.342,0.712-28.195-13.718c0.102-9.728,13.551-23.681,23.68-20.392
			C135.146,62.515,136.455,57.687,133.4,56.695L133.4,56.695z"/>
	</g>
</g>
<g>
	<g>
		<path fill="#342214" d="M123.441,100.575c-1.279,16.214-1.859,32.444-1.865,48.708c-0.002,6.109,0.312,12.199,0.586,18.301
			c0.111,2.523-0.311,6.715,1.479,8.771c1.168,1.34,3.018,0.674,3.926-0.506c0.252-0.328,0.35-0.721,0.449-1.111
			c0.797-3.127-4.025-4.453-4.822-1.33c0.02-0.027,0.037-0.055,0.057-0.082c1.311-0.17,2.617-0.338,3.926-0.506
			c1.078,1.236,0.227-1.334,0.152-2.344c-0.135-1.787-0.207-3.576-0.264-5.365c-0.209-6.553-0.504-13.074-0.482-19.637
			c0.045-14.988,0.68-29.957,1.857-44.899C128.695,97.358,123.693,97.383,123.441,100.575L123.441,100.575z"/>
	</g>
</g>
<g>
	<g>
		<path fill="#342214" d="M122.641,174.156c-2.305,6.715-5.879,12.896-8.363,19.543c-2.4,6.426-2.094,13.357-3.943,19.902
			c-0.879,3.107,3.943,4.426,4.82,1.328c1.691-5.979,1.578-12.277,3.391-18.234c2.236-7.348,6.424-13.943,8.916-21.209
			C128.512,172.428,123.68,171.125,122.641,174.156L122.641,174.156z"/>
	</g>
</g>
<g>
	<g>
		<path fill="#342214" d="M123.17,175.834c4.086,7.539,9.273,14.252,10.834,22.859c0.666,3.678,0.346,11.127,3.172,13.957
			c2.279,2.285,5.812-1.25,3.535-3.533c0.629,0.631-0.094-1.258-0.178-1.672c-0.256-1.25-0.451-2.514-0.66-3.771
			c-0.498-2.982-0.941-5.977-1.557-8.939c-1.629-7.875-7.08-14.5-10.832-21.422C125.951,170.477,121.633,173,123.17,175.834
			L123.17,175.834z"/>
	</g>
</g>
<g>
	<g>
		<path fill="#342214" d="M123,117.836c9.707,9.793,15.355,24.412,29.086,29.521c3.027,1.127,4.322-3.707,1.328-4.82
			c-12.445-4.633-18.023-19.303-26.879-28.236C124.264,112.009,120.729,115.545,123,117.836L123,117.836z"/>
	</g>
</g>
<g>
	<g>
		<path fill="#342214" d="M151.699,142.689c-1.037,1.451-1.779,3.836-0.143,5.205c1.232,1.029,2.832,1.135,4.322,0.623
			c1.768-0.609,3.32-1.904,2.904-3.984c-0.439-2.195-3.172-2.379-4.932-2.332c-1.359,0.037-2.5,1.109-2.5,2.5
			c0,1.334,1.139,2.537,2.5,2.5c0.316-0.01,0.633-0.01,0.949,0c0.141,0.006,0.279,0.016,0.42,0.027
			c0.521,0.047-0.734-0.117-0.258-0.035c0.428,0.074,0.592,0.23-0.096-0.102c0.355,0.174-0.523-0.443-0.354-0.285
			c-0.225-0.207-0.471-0.662-0.559-0.967c-0.102-0.34-0.07-0.975-0.012-1.18c0.256-0.863,0.33-0.676,0.184-0.467
			c0.557-0.787,0.445-0.537,0.268-0.371c-0.26,0.24,0.639-0.473,0.338-0.262c-0.111,0.08-0.232,0.146-0.355,0.207
			c-0.418,0.207,0.625-0.256,0.348-0.145c-0.072,0.031-0.145,0.059-0.223,0.082c-0.15,0.053-0.307,0.094-0.463,0.129
			c-0.076,0.018-0.154,0.029-0.232,0.041c1.037-0.16,0.635-0.076,0.395-0.061c-0.072,0.006-0.146,0.006-0.219,0.004
			c-0.453-0.012,0.707,0.109,0.424,0.062c-0.062-0.01-0.121-0.025-0.182-0.045c-0.268-0.086,0.756,0.375,0.412,0.164
			c0.447,0.273,0.721,0.625,0.898,1.164c-0.117-0.352,0.066,0.828,0.059,0.441c-0.008-0.4-0.145,0.809-0.057,0.393
			c0.021-0.092,0.051-0.182,0.082-0.268c0.09-0.246-0.35,0.742-0.082,0.227c0.137-0.264,0.303-0.51,0.477-0.75
			c0.793-1.111,0.197-2.779-0.896-3.42C153.861,141.057,152.49,141.584,151.699,142.689L151.699,142.689z"/>
	</g>
</g>
<g>
	<g>
		<path fill="#342214" d="M159.623,125.9c-2.205,10.668-7.469,20.439-9.238,31.209c-0.258,1.576,2.15,2.252,2.412,0.664
			c1.77-10.77,7.031-20.541,9.238-31.207C162.359,124.992,159.949,124.322,159.623,125.9L159.623,125.9z"/>
	</g>
</g>
<g>
	<g>
		<path fill="#342214" d="M150.928,98.362c-1.326,7.438-3.846,14.552-6.162,21.722c-0.195,0.605,0.223,1.42,0.873,1.537
			c6.168,1.105,12.117,3.004,18.17,4.584c5.693,1.484,11.566,1.561,17.07,3.828c0.797,0.328,1.543-0.479,1.584-1.207
			c0.418-7.66,5.17-14.217,5.061-21.977c-0.008-0.681-0.561-1.25-1.25-1.25c-6.943-0.002-13.611-2.249-20.246-4.078
			c-4.275-1.179-8.832-3.154-13.348-2.826c-1.598,0.116-1.609,2.617,0,2.5c5.076-0.369,10.432,2.19,15.293,3.42
			c6.115,1.548,11.926,3.481,18.301,3.483c-0.416-0.417-0.832-0.833-1.25-1.25c0.107,7.705-4.643,14.318-5.061,21.978
			c0.525-0.402,1.055-0.805,1.582-1.207c-4.967-2.047-10.301-2.535-15.543-3.502c-6.656-1.227-13.018-3.713-19.697-4.908
			c0.291,0.514,0.582,1.025,0.873,1.537c2.316-7.168,4.836-14.284,6.162-21.721C153.621,97.451,151.211,96.777,150.928,98.362
			L150.928,98.362z"/>
	</g>
</g>
<g>
	<g>
		<path fill="#342214" d="M123.412,116.486c-12.83,4.652-25.881,0.029-33.511-11.185c-1.802-2.648-6.137-0.15-4.317,2.523
			c8.816,12.958,24.156,18.921,39.158,13.483C127.748,120.217,126.451,115.385,123.412,116.486L123.412,116.486z"/>
	</g>
</g>
<g>
	<g>
		<defs>
			<path id="SVGID_1_" d="M21,1c-1.104,0-2,0.895-2,1.997v221.007c0,1.102,0.887,1.996,2,1.996h6c1.104,0,2-0.895,2-1.996V2.997
				C29,1.894,28.113,1,27,1H21z"/>
		</defs>
		<clipPath id="SVGID_2_">
			<use xlink:href="#SVGID_1_"  overflow="visible"/>
		</clipPath>
		<rect x="14" y="-4" clip-path="url(#SVGID_2_)" fill="#372212" width="20" height="235"/>
	</g>
</g>
<g>
	<g>
		<defs>
			
				<rect id="SVGID_3_" x="37.498" y="12.501" transform="matrix(0.7071 0.7071 -0.7071 0.7071 41.4411 -18.0418)" width="10" height="56.999"/>
		</defs>
		<clipPath id="SVGID_4_">
			<use xlink:href="#SVGID_3_"  overflow="visible"/>
		</clipPath>
		<rect x="13.812" y="12.312" clip-path="url(#SVGID_4_)" fill="#372212" width="57.376" height="57.377"/>
	</g>
</g>
<g>
	<g>
		<defs>
			<path id="SVGID_5_" d="M93.863,16c-1.658,0-4.348,0-6.004,0H5.999C4.895,16,4,16.888,4,18v6c0,1.104,0.896,2,1.995,2h123.011
				c1.102,0,1.994-0.888,1.994-2v-6c0-1.104-0.895-2-1.99-2H93.863z"/>
		</defs>
		<clipPath id="SVGID_6_">
			<use xlink:href="#SVGID_5_"  overflow="visible"/>
		</clipPath>
		<rect x="-1" y="11" clip-path="url(#SVGID_6_)" fill="#372212" width="137" height="20"/>
	</g>
</g>
<g>
	<g>
		<defs>
			<path id="SVGID_7_" d="M2.003,222C1.449,222,1,222.443,1,223v3c0,0.553,0.45,1,1.003,1h44.993c0.554,0,1.003-0.443,1.003-1v-3
				c0-0.553-0.45-1-1.003-1H2.003z"/>
		</defs>
		<clipPath id="SVGID_8_">
			<use xlink:href="#SVGID_7_"  overflow="visible"/>
		</clipPath>
		<rect x="-4" y="217" clip-path="url(#SVGID_8_)" fill="#372212" width="57" height="15"/>
	</g>
</g>
<g>
	<g>
		<defs>
			<rect id="SVGID_9_" x="127" y="24" width="4" height="34"/>
		</defs>
		<clipPath id="SVGID_10_">
			<use xlink:href="#SVGID_9_"  overflow="visible"/>
		</clipPath>
		<rect x="122" y="19" clip-path="url(#SVGID_10_)" fill="#372212" width="14" height="44"/>
	</g>
</g>
<g>
	<g>
		<path fill="#362111" d="M161.705,117.333c0.367-1.3,1.315-2.541,2.055-3.648c0.585-0.876,2.205-3.696,3.391-3.855
			c-0.517,0.069-0.362-0.157-0.213,0.49c0.094,0.404,0.11,0.825,0.14,1.237c0.068,0.948,0.042,1.904,0.012,2.854
			c-0.051,1.632-0.138,3.321-0.46,4.925c-0.316,1.574,2.093,2.245,2.41,0.665c0.463-2.299,0.564-4.719,0.577-7.057
			c0.01-1.867,0.093-4.708-1.949-5.55c-1.812-0.747-3.899,2.135-4.768,3.245c-1.369,1.75-2.99,3.852-3.604,6.03
			C158.856,118.223,161.269,118.881,161.705,117.333L161.705,117.333z"/>
	</g>
</g>
<g>
	<g>
		<path fill="#362111" d="M162.283,114.384c1.274,1.011,2.891,1.714,4.551,1.533c0.677-0.074,1.25-0.513,1.25-1.25
			c0-0.625-0.571-1.324-1.25-1.25c-0.98,0.107-2.004-0.184-2.783-0.801c-0.533-0.423-1.245-0.523-1.768,0
			C161.843,113.056,161.748,113.96,162.283,114.384L162.283,114.384z"/>
	</g>
</g>
<g>
	<g>
		<path fill="#362111" d="M171.25,110.167c0.036,1.342,0.307,2.628,0.728,3.9c0.302,0.911,0.831,1.813,0.984,2.766
			c0.255,1.588,2.663,0.912,2.41-0.665c-0.115-0.721-0.48-1.416-0.74-2.092c-0.484-1.262-0.845-2.551-0.882-3.909
			C173.706,108.558,171.206,108.553,171.25,110.167L171.25,110.167z"/>
	</g>
</g>
<g>
	<g>
		<path fill="#362111" d="M177.283,110.616c-3.234,3.041-4.493,6.711-5.654,10.884c-0.434,1.556,1.979,2.216,2.41,0.665
			c1.047-3.761,2.089-7.034,5.012-9.782C180.228,111.278,178.456,109.513,177.283,110.616L177.283,110.616z"/>
	</g>
</g>
<g>
	<g>
		<path fill="#362111" d="M181.255,111.203c-1.101,1.99-2.351,3.919-2.96,6.132c-0.429,1.557,1.983,2.217,2.41,0.665
			c0.551-2,1.714-3.737,2.708-5.535C184.194,111.053,182.035,109.792,181.255,111.203L181.255,111.203z"/>
	</g>
</g>
<g>
	<g>
		<path fill="#362111" d="M177.334,122.083c1.612,0,1.612-2.5,0-2.5S175.722,122.083,177.334,122.083L177.334,122.083z"/>
	</g>
</g>
<g>
	<g>
		<path fill="#362111" d="M115.625,82.875c-0.102,6.534,5.129,9.767,11.132,10.24c2.976,0.234,6.034-0.718,8.521-2.295
			c3.134-1.987,3.379-5.223,4.177-8.487c0.382-1.566-2.028-2.23-2.411-0.665c-0.596,2.441-0.634,4.583-2.474,6.533
			c-1.664,1.762-4.528,2.268-6.821,2.425c-4.891,0.335-9.707-2.477-9.625-7.75C118.15,81.262,115.65,81.265,115.625,82.875
			L115.625,82.875z"/>
	</g>
</g>
<g>
	<g>
		<path fill="#362111" d="M125.625,74.875c-0.253-3.07-2.223-5.118-3.546-7.756c-0.384-0.767-1.39-0.746-1.963-0.253
			c-1.204,1.035-2.416,2.015-3.364,3.3c-0.943,1.279-1.202,2.924-1.377,4.458c-0.183,1.6,2.319,1.583,2.5,0
			c0.328-2.872,1.923-4.199,4.009-5.991c-0.654-0.084-1.309-0.168-1.963-0.253c1.073,2.141,2.999,4.01,3.204,6.494
			C123.257,76.47,125.758,76.482,125.625,74.875L125.625,74.875z"/>
	</g>
</g>
<g>
	<g>
		<path fill="#362111" d="M135.116,66.866c-1.166,1.001-2.331,1.953-3.273,3.175c-1.005,1.303-1.289,2.996-1.468,4.584
			c-0.18,1.601,2.322,1.583,2.5,0c0.136-1.213,0.419-2.317,1.126-3.322c0.732-1.041,1.929-1.849,2.883-2.669
			C138.108,67.581,136.332,65.821,135.116,66.866L135.116,66.866z"/>
	</g>
</g>
<g>
	<g>
		<path fill="#362111" d="M140.625,74.875c-0.248-3.071-2.227-5.118-3.546-7.756c-0.721-1.442-2.877-0.176-2.158,1.262
			c1.07,2.141,3.004,4.01,3.204,6.494C138.253,76.471,140.754,76.483,140.625,74.875L140.625,74.875z"/>
	</g>
</g>
<g>
	<g>
		<path fill="#362111" d="M152.962,105.624c0.812,2.245,1.771,4.566,4.074,5.622c1.454,0.667,2.726-1.487,1.262-2.158
			c-1.703-0.781-2.323-2.463-2.926-4.129C154.828,103.456,152.412,104.104,152.962,105.624L152.962,105.624z"/>
	</g>
</g>
<g>
	<g>
		<path fill="#362111" d="M160.295,106.001c-1.735,4.129-6.047,6.399-7.874,10.535c-0.646,1.46,1.508,2.734,2.158,1.262
			c1.91-4.323,6.279-6.737,8.126-11.132C163.33,105.18,160.909,104.538,160.295,106.001L160.295,106.001z"/>
	</g>
</g>
</svg>
