<?xml version="1.0" encoding="utf-8"?>
<!-- Generator: Adobe Illustrator 16.0.0, SVG Export Plug-In . SVG Version: 6.00 Build 0)  -->
<!DOCTYPE svg PUBLIC "-//W3C//DTD SVG 1.1//EN" "http://www.w3.org/Graphics/SVG/1.1/DTD/svg11.dtd">
<svg version="1.1" id="Layer_1" xmlns="http://www.w3.org/2000/svg" xmlns:xlink="http://www.w3.org/1999/xlink" x="0px" y="0px"
	 width="187.525px" height="227px" viewBox="0 0 187.525 227" enable-background="new 0 0 187.525 227" xml:space="preserve">
<g>
	<g>
		<g>
			<defs>
				<path id="SVGID_1_" d="M21,0c-1.104,0-2,0.895-2,1.997v221.007c0,1.102,0.887,1.996,2,1.996h6c1.104,0,2-0.896,2-1.996V1.997
					C29,0.894,28.113,0,27,0H21z"/>
			</defs>
			<clipPath id="SVGID_2_">
				<use xlink:href="#SVGID_1_"  overflow="visible"/>
			</clipPath>
			<rect x="14" y="-5" clip-path="url(#SVGID_2_)" fill="#372212" width="20" height="235"/>
		</g>
	</g>
</g>
<g>
	<g>
		<g>
			<defs>
				
					<rect id="SVGID_3_" x="37.5" y="11.501" transform="matrix(-0.7071 -0.7071 0.7071 -0.7071 44.2658 98.3364)" width="10" height="56.998"/>
			</defs>
			<clipPath id="SVGID_4_">
				<use xlink:href="#SVGID_3_"  overflow="visible"/>
			</clipPath>
			<rect x="13.812" y="11.312" clip-path="url(#SVGID_4_)" fill="#372212" width="57.376" height="57.377"/>
		</g>
	</g>
</g>
<g>
	<g>
		<g>
			<defs>
				<path id="SVGID_5_" d="M93.863,15c-1.658,0-4.348,0-6.004,0H5.999C4.895,15,4,15.888,4,17v6c0,1.104,0.896,2,1.995,2h123.011
					c1.102,0,1.994-0.888,1.994-2v-6c0-1.104-0.896-2-1.99-2H93.863z"/>
			</defs>
			<clipPath id="SVGID_6_">
				<use xlink:href="#SVGID_5_"  overflow="visible"/>
			</clipPath>
			<rect x="-1" y="10" clip-path="url(#SVGID_6_)" fill="#372212" width="137" height="20"/>
		</g>
	</g>
</g>
<g>
	<g>
		<g>
			<defs>
				<path id="SVGID_7_" d="M2.003,221C1.449,221,1,221.443,1,222v3c0,0.553,0.45,1,1.003,1h44.993c0.554,0,1.003-0.443,1.003-1v-3
					c0-0.553-0.45-1-1.003-1H2.003z"/>
			</defs>
			<clipPath id="SVGID_8_">
				<use xlink:href="#SVGID_7_"  overflow="visible"/>
			</clipPath>
			<rect x="-4" y="216" clip-path="url(#SVGID_8_)" fill="#372212" width="57" height="15"/>
		</g>
	</g>
</g>
<g>
	<g>
		<g>
			<defs>
				<rect id="SVGID_9_" x="127" y="23" width="4" height="34"/>
			</defs>
			<clipPath id="SVGID_10_">
				<use xlink:href="#SVGID_9_"  overflow="visible"/>
			</clipPath>
			<rect x="122" y="18" clip-path="url(#SVGID_10_)" fill="#372212" width="14" height="44"/>
		</g>
	</g>
</g>
<g>
	<g>
		<path fill="#FFFFFF" d="M258.667,169.5c3.225,0,3.225-5,0-5S255.442,169.5,258.667,169.5L258.667,169.5z"/>
	</g>
</g>
</svg>
