<?xml version="1.0" encoding="utf-8"?>
<!-- Generator: Adobe Illustrator 16.0.0, SVG Export Plug-In . SVG Version: 6.00 Build 0)  -->
<!DOCTYPE svg PUBLIC "-//W3C//DTD SVG 1.1//EN" "http://www.w3.org/Graphics/SVG/1.1/DTD/svg11.dtd">
<svg version="1.1" id="Layer_1" xmlns="http://www.w3.org/2000/svg" xmlns:xlink="http://www.w3.org/1999/xlink" x="0px" y="0px"
	 width="187.525px" height="227px" viewBox="0 0 187.525 227" enable-background="new 0 0 187.525 227" xml:space="preserve">
<g>
	<g>
		<g>
			<g>
				<g>
					<defs>
						<path id="SVGID_1_" d="M21,0c-1.104,0-2,0.895-2,1.997v221.007c0,1.102,0.889,1.996,2,1.996h6c1.104,0,2-0.896,2-1.996V1.997
							C29,0.894,28.113,0,27,0H21z"/>
					</defs>
					<clipPath id="SVGID_2_">
						<use xlink:href="#SVGID_1_"  overflow="visible"/>
					</clipPath>
					<rect x="14" y="-5" clip-path="url(#SVGID_2_)" fill="#372212" width="20" height="235"/>
				</g>
			</g>
		</g>
	</g>
</g>
<g>
	<g>
		<g>
			<g>
				<g>
					<defs>
						
							<rect id="SVGID_3_" x="37.498" y="11.504" transform="matrix(-0.707 -0.7072 0.7072 -0.707 44.2559 98.3424)" width="10" height="57"/>
					</defs>
					<clipPath id="SVGID_4_">
						<use xlink:href="#SVGID_3_"  overflow="visible"/>
					</clipPath>
					<rect x="13.812" y="11.312" clip-path="url(#SVGID_4_)" fill="#372212" width="57.376" height="57.377"/>
				</g>
			</g>
		</g>
	</g>
</g>
<g>
	<g>
		<g>
			<g>
				<g>
					<defs>
						<path id="SVGID_5_" d="M93.863,15c-1.658,0-4.348,0-6.004,0H5.999C4.895,15,4,15.888,4,17v6c0,1.104,0.896,2,1.995,2h123.011
							c1.104,0,1.994-0.888,1.994-2v-6c0-1.104-0.896-2-1.99-2H93.863z"/>
					</defs>
					<clipPath id="SVGID_6_">
						<use xlink:href="#SVGID_5_"  overflow="visible"/>
					</clipPath>
					<rect x="-1" y="10" clip-path="url(#SVGID_6_)" fill="#372212" width="137" height="20"/>
				</g>
			</g>
		</g>
	</g>
</g>
<g>
	<g>
		<g>
			<g>
				<g>
					<defs>
						<path id="SVGID_7_" d="M2.003,221C1.449,221,1,221.443,1,222v3c0,0.553,0.45,1,1.003,1h44.993c0.554,0,1.003-0.443,1.003-1v-3
							c0-0.553-0.45-1-1.003-1H2.003z"/>
					</defs>
					<clipPath id="SVGID_8_">
						<use xlink:href="#SVGID_7_"  overflow="visible"/>
					</clipPath>
					<rect x="-4" y="216" clip-path="url(#SVGID_8_)" fill="#372212" width="57" height="15"/>
				</g>
			</g>
		</g>
	</g>
</g>
<g>
	<g>
		<g>
			<g>
				<g>
					<defs>
						<rect id="SVGID_9_" x="127" y="23" width="4" height="34"/>
					</defs>
					<clipPath id="SVGID_10_">
						<use xlink:href="#SVGID_9_"  overflow="visible"/>
					</clipPath>
					<rect x="122" y="18" clip-path="url(#SVGID_10_)" fill="#372212" width="14" height="44"/>
				</g>
			</g>
		</g>
	</g>
</g>
<g>
	<g>
		<path fill="#FFFFFF" d="M258.667,169.5c3.227,0,3.227-5,0-5C255.442,164.5,255.442,169.5,258.667,169.5L258.667,169.5z"/>
	</g>
</g>
<g>
	<g>
		<path fill="#342110" d="M133.4,55.359c-12.978-4.214-28.062,11.081-29.808,23.124c-2.563,17.696,16.134,25.854,30.878,21.902
			c11.399-3.056,18.969-13.682,17.475-25.45c-1.473-11.589-11.144-19.596-22.73-19.182c-3.215,0.115-3.227,5.115,0,5
			c19.599-0.701,23.902,25.216,7.373,33.537c-11.375,5.727-28.342,0.712-28.192-13.718c0.102-9.728,13.551-23.681,23.68-20.392
			C135.146,61.179,136.453,56.351,133.4,55.359L133.4,55.359z"/>
	</g>
</g>
<g>
	<g>
		<path fill="#342110" d="M126.58,144.139c0.045-14.988,0.683-29.957,1.859-44.899c0.254-3.217-4.748-3.192-5,0l0,0
			c-1.279,16.214-1.859,32.444-1.865,48.708c-0.002,6.107,0.314,12.199,0.586,18.301c0.113,2.523-0.311,6.715,1.48,8.771
			c1.168,1.34,3.016,0.674,3.926-0.506c0.252-0.328,0.348-0.722,0.447-1.111c0.797-3.127-4.025-4.453-4.82-1.33
			c0.018-0.027,0.037-0.055,0.055-0.082c1.312-0.17,2.617-0.338,3.926-0.506"/>
	</g>
</g>
<g>
	<g>
		<path fill="#342110" d="M122.638,172.82c-2.306,6.715-5.877,12.896-8.363,19.543c-2.4,6.426-2.094,13.357-3.943,19.902
			c-0.879,3.106,3.945,4.426,4.82,1.327c1.69-5.979,1.58-12.276,3.391-18.233c2.236-7.348,6.424-13.943,8.916-21.209
			C128.51,171.092,123.679,169.789,122.638,172.82L122.638,172.82z"/>
	</g>
</g>
<g>
	<g>
		<path fill="#342110" d="M127.482,171.977c-1.533-2.836-5.853-0.312-4.314,2.521l0,0"/>
	</g>
</g>
<g>
	<g>
		<path fill="#342110" d="M122.998,116.5c9.707,9.793,15.357,24.412,29.086,29.521c3.027,1.127,4.322-3.707,1.328-4.82
			c-12.445-4.633-18.021-19.303-26.879-28.236C124.261,110.673,120.728,114.209,122.998,116.5L122.998,116.5z"/>
	</g>
</g>
<g>
	<g>
		<path fill="#342110" d="M151.697,141.354c-1.037,1.451-1.779,3.836-0.143,5.205c1.231,1.029,2.834,1.135,4.321,0.623
			c1.771-0.608,3.32-1.904,2.904-3.983c-0.439-2.195-3.172-2.38-4.932-2.332c-1.359,0.036-2.5,1.108-2.5,2.5
			c0,1.334,1.139,2.536,2.5,2.5c0.313-0.011,0.633-0.011,0.946,0c0.144,0.006,0.279,0.016,0.422,0.026
			c0.521,0.047-0.733-0.117-0.26-0.035c0.431,0.074,0.594,0.23-0.096-0.102c0.356,0.174-0.523-0.443-0.353-0.285
			c-0.227-0.207-0.473-0.662-0.561-0.967c-0.102-0.34-0.07-0.975-0.012-1.18c0.256-0.863,0.33-0.676,0.184-0.467
			c0.56-0.787,0.445-0.537,0.269-0.373c-0.261,0.242,0.639-0.474,0.34-0.26c-0.113,0.077-0.234,0.145-0.357,0.205
			c-0.418,0.207,0.625-0.257,0.351-0.146c-0.072,0.03-0.146,0.059-0.226,0.082c-0.147,0.053-0.307,0.094-0.463,0.129
			c-0.076,0.021-0.152,0.028-0.229,0.041c1.036-0.16,0.635-0.076,0.395-0.062c-0.072,0.006-0.146,0.006-0.219,0.004
			c-0.453-0.012,0.707,0.109,0.424,0.062c-0.062-0.01-0.121-0.025-0.182-0.045c-0.271-0.086,0.756,0.375,0.411,0.164
			c0.445,0.273,0.722,0.625,0.896,1.164c-0.117-0.352,0.066,0.828,0.061,0.439c-0.01-0.398-0.146,0.811-0.059,0.395
			c0.021-0.092,0.051-0.182,0.082-0.27c0.09-0.246-0.348,0.743-0.082,0.229c0.137-0.266,0.303-0.512,0.479-0.75
			c0.793-1.111,0.194-2.779-0.896-3.42C153.859,139.721,152.488,140.248,151.697,141.354L151.697,141.354z"/>
	</g>
</g>
<g>
	<g>
		<path fill="#342110" d="M159.621,124.564c-2.205,10.668-7.467,20.438-9.238,31.209c-0.258,1.576,2.15,2.252,2.412,0.664
			c1.771-10.771,7.031-20.541,9.238-31.207C162.357,123.656,159.947,122.986,159.621,124.564L159.621,124.564z"/>
	</g>
</g>
<g>
	<g>
		<path fill="#342110" d="M150.926,97.026c-1.325,7.438-3.846,14.552-6.161,21.722c-0.195,0.605,0.223,1.42,0.873,1.537
			c6.168,1.105,12.116,3.004,18.17,4.584c5.692,1.484,11.565,1.561,17.069,3.828c0.797,0.328,1.543-0.479,1.584-1.207
			c0.418-7.66,5.17-14.217,5.062-21.977c-0.01-0.681-0.562-1.25-1.25-1.25c-6.945-0.002-13.613-2.249-20.248-4.078
			c-4.275-1.179-8.83-3.154-13.346-2.826c-1.601,0.116-1.609,2.617,0,2.5c5.073-0.369,10.43,2.19,15.293,3.42
			c6.112,1.548,11.926,3.481,18.301,3.483c-0.418-0.417-0.834-0.833-1.25-1.25c0.104,7.705-4.646,14.318-5.062,21.978
			c0.525-0.402,1.056-0.805,1.582-1.207c-4.967-2.047-10.301-2.535-15.543-3.502c-6.653-1.227-13.018-3.713-19.697-4.908
			c0.291,0.516,0.582,1.025,0.873,1.537c2.316-7.167,4.837-14.284,6.162-21.721C153.619,96.115,151.209,95.441,150.926,97.026
			L150.926,97.026z"/>
	</g>
</g>
<g>
	<g>
		<path fill="#342110" d="M153.369,105.537c-0.867,3.489-2.016,6.9-3.354,10.234c-0.603,1.498,1.817,2.143,2.411,0.666
			c1.337-3.336,2.484-6.749,3.354-10.235C156.168,104.637,153.758,103.973,153.369,105.537L153.369,105.537z"/>
	</g>
</g>
<g>
	<g>
		<path fill="#342110" d="M152.285,113.066c1.482,0.256,2.965,0.306,4.465,0.313c1.613,0.009,1.613-2.492,0-2.5
			c-1.27-0.007-2.545-0.008-3.801-0.225C151.373,110.382,150.699,112.791,152.285,113.066L152.285,113.066z"/>
	</g>
</g>
<g>
	<g>
		<path fill="#342110" d="M156.9,107.386c-0.354,2.685-1.271,5.373-2.199,7.907c-0.557,1.518,1.861,2.164,2.412,0.664
			c1.016-2.77,1.902-5.644,2.287-8.571C159.611,105.791,157.107,105.811,156.9,107.386L156.9,107.386z"/>
	</g>
</g>
<g>
	<g>
		<path fill="#342110" d="M165.094,106.96c-5.471-0.76-5.741,4.927-5.752,8.937c0,0.59,0.392,1.015,0.918,1.207
			c1.273,0.465,2.402,0.304,3.695,0.013c1.57-0.354,0.904-2.765-0.664-2.41c-0.871,0.194-1.514,0.299-2.367-0.015
			c0.308,0.402,0.613,0.806,0.918,1.207c0.005-1.891-0.489-6.953,2.587-6.524C166.004,109.59,166.685,107.182,165.094,106.96
			L165.094,106.96z"/>
	</g>
</g>
<g>
	<g>
		<path fill="#342110" d="M160.552,113.354c1.203,0.258,2.414,0.303,3.64,0.309c1.613,0.008,1.613-2.491,0-2.499
			c-1-0.005-1.992-0.01-2.976-0.22C159.644,110.606,158.976,113.016,160.552,113.354L160.552,113.354z"/>
	</g>
</g>
<g>
	<g>
		<path fill="#342110" d="M168.56,108.054c-1.269,1.09-1.804,3.056-2.271,4.588c-0.553,1.811-1.043,3.875-0.895,5.782
			c0.041,0.512,0.348,1.117,0.918,1.207c1.668,0.262,3.33,0.307,5.016,0.316c1.613,0.008,1.613-2.492,0-2.5
			c-1.453-0.01-2.912,0-4.352-0.229c0.307,0.398,0.61,0.804,0.918,1.203c-0.123-1.565,0.271-3.144,0.67-4.645
			c0.334-1.255,0.731-3.071,1.764-3.957C171.551,108.768,169.775,107.008,168.56,108.054L168.56,108.054z"/>
	</g>
</g>
<g>
	<g>
		<path fill="#342110" d="M174.525,110.466c-0.039,2.242-0.402,4.464-0.814,6.663c-0.293,1.576,2.117,2.25,2.412,0.666
			c0.449-2.414,0.859-4.87,0.902-7.329C177.054,108.852,174.554,108.855,174.525,110.466L174.525,110.466z"/>
	</g>
</g>
<g>
	<g>
		<path fill="#342110" d="M176.664,110.924c0.793-0.195,1.818-0.368,2.519-0.014c0.471,0.24,0.506,0.486,0.469,1.017
			c0.002-0.021-0.104,0.326-0.188,0.481c-0.114,0.222-0.303,0.455-0.5,0.604c-0.698,0.525-1.526,0.566-2.379,0.459
			c-0.678-0.088-1.25,0.632-1.25,1.25c0,0.746,0.574,1.162,1.25,1.25c2.689,0.344,5.373-1.338,5.574-4.167
			c0.086-1.224-0.611-2.323-1.596-2.98c-1.312-0.874-3.127-0.661-4.562-0.309C174.433,108.897,175.097,111.308,176.664,110.924
			L176.664,110.924z"/>
	</g>
</g>
<g>
	<g>
		<path fill="#342110" d="M123.41,115.15c-12.83,4.651-25.881,0.029-33.51-11.186c-1.802-2.648-6.137-0.15-4.317,2.523
			c8.816,12.958,24.155,18.921,39.157,13.483C127.746,118.881,126.449,114.049,123.41,115.15L123.41,115.15z"/>
	</g>
</g>
<polyline fill="none" points="130.998,56.664 126.998,56.664 126.998,22.664 "/>
</svg>
