<?xml version="1.0" encoding="utf-8"?>
<!-- Generator: Adobe Illustrator 16.0.0, SVG Export Plug-In . SVG Version: 6.00 Build 0)  -->
<!DOCTYPE svg PUBLIC "-//W3C//DTD SVG 1.1//EN" "http://www.w3.org/Graphics/SVG/1.1/DTD/svg11.dtd">
<svg version="1.1" id="Layer_1" xmlns="http://www.w3.org/2000/svg" xmlns:xlink="http://www.w3.org/1999/xlink" x="0px" y="0px"
	 width="187.525px" height="227px" viewBox="0 0 187.525 227" enable-background="new 0 0 187.525 227" xml:space="preserve">
<g>
	<g>
		<path fill="#342214" d="M133.4,55.695c-12.976-4.214-28.062,11.081-29.805,23.124c-2.564,17.696,16.131,25.854,30.875,21.902
			c11.401-3.056,18.969-13.682,17.475-25.45c-1.471-11.589-11.141-19.596-22.729-19.182c-3.215,0.115-3.227,5.115,0,5
			c19.597-0.701,23.902,25.216,7.373,33.537c-11.375,5.727-28.342,0.712-28.194-13.718c0.102-9.728,13.551-23.681,23.68-20.392
			C135.146,61.515,136.455,56.687,133.4,55.695L133.4,55.695z"/>
	</g>
</g>
<g>
	<g>
		<path fill="#342214" d="M123.441,99.575c-1.279,16.214-1.859,32.444-1.865,48.708c-0.002,6.109,0.312,12.199,0.586,18.301
			c0.111,2.523-0.311,6.715,1.479,8.771c1.168,1.34,3.018,0.674,3.926-0.506c0.252-0.328,0.35-0.722,0.449-1.111
			c0.797-3.127-4.025-4.453-4.822-1.33c0.02-0.027,0.037-0.055,0.057-0.082c1.312-0.17,2.617-0.338,3.927-0.506
			c1.077,1.236,0.227-1.334,0.151-2.344c-0.135-1.787-0.207-3.576-0.264-5.365c-0.209-6.553-0.504-13.074-0.482-19.637
			c0.045-14.988,0.681-29.957,1.857-44.899C128.695,96.358,123.693,96.383,123.441,99.575L123.441,99.575z"/>
	</g>
</g>
<g>
	<g>
		<path fill="#342214" d="M122.641,173.156c-2.306,6.715-5.879,12.896-8.363,19.543c-2.4,6.426-2.094,13.357-3.943,19.902
			c-0.879,3.106,3.943,4.426,4.82,1.328c1.691-5.979,1.578-12.277,3.391-18.234c2.236-7.348,6.425-13.943,8.916-21.209
			C128.512,171.428,123.68,170.125,122.641,173.156L122.641,173.156z"/>
	</g>
</g>
<g>
	<g>
		<path fill="#342214" d="M123.17,174.834c4.086,7.539,9.273,14.252,10.834,22.859c0.666,3.678,0.347,11.127,3.172,13.957
			c2.279,2.285,5.812-1.25,3.535-3.533c0.629,0.631-0.094-1.258-0.178-1.672c-0.256-1.25-0.451-2.514-0.66-3.771
			c-0.498-2.982-0.94-5.977-1.557-8.939c-1.629-7.875-7.08-14.5-10.832-21.422C125.951,169.477,121.633,172,123.17,174.834
			L123.17,174.834z"/>
	</g>
</g>
<g>
	<g>
		<path fill="#342214" d="M123,116.836c9.707,9.793,15.355,24.412,29.086,29.521c3.027,1.127,4.322-3.707,1.328-4.82
			c-12.445-4.633-18.022-19.303-26.879-28.236C124.264,111.009,120.729,114.545,123,116.836L123,116.836z"/>
	</g>
</g>
<g>
	<g>
		<path fill="#342214" d="M151.699,141.689c-1.037,1.451-1.779,3.836-0.143,5.205c1.231,1.028,2.832,1.135,4.321,0.623
			c1.769-0.609,3.32-1.904,2.904-3.984c-0.439-2.195-3.172-2.379-4.932-2.332c-1.359,0.037-2.5,1.109-2.5,2.5
			c0,1.334,1.139,2.537,2.5,2.5c0.315-0.01,0.633-0.01,0.948,0c0.142,0.006,0.279,0.016,0.421,0.027
			c0.521,0.047-0.734-0.117-0.259-0.035c0.429,0.074,0.593,0.229-0.096-0.103c0.355,0.175-0.523-0.442-0.354-0.284
			c-0.226-0.207-0.472-0.662-0.56-0.968c-0.102-0.34-0.07-0.976-0.012-1.18c0.256-0.863,0.33-0.677,0.184-0.468
			c0.558-0.787,0.445-0.537,0.269-0.371c-0.261,0.24,0.639-0.473,0.338-0.262c-0.111,0.08-0.232,0.146-0.355,0.207
			c-0.418,0.207,0.625-0.256,0.349-0.145c-0.072,0.031-0.146,0.059-0.224,0.082c-0.149,0.053-0.307,0.094-0.463,0.129
			c-0.076,0.018-0.154,0.029-0.231,0.041c1.036-0.16,0.635-0.076,0.395-0.061c-0.072,0.006-0.146,0.006-0.219,0.004
			c-0.453-0.012,0.707,0.108,0.424,0.062c-0.062-0.01-0.121-0.024-0.182-0.045c-0.269-0.086,0.756,0.375,0.412,0.164
			c0.446,0.272,0.721,0.625,0.897,1.164c-0.117-0.353,0.066,0.828,0.059,0.44c-0.008-0.399-0.145,0.81-0.057,0.394
			c0.021-0.093,0.051-0.183,0.082-0.269c0.09-0.246-0.35,0.742-0.082,0.228c0.137-0.265,0.303-0.511,0.478-0.75
			c0.793-1.111,0.196-2.779-0.896-3.42C153.861,140.057,152.49,140.584,151.699,141.689L151.699,141.689z"/>
	</g>
</g>
<g>
	<g>
		<path fill="#342214" d="M159.623,124.9c-2.205,10.668-7.469,20.438-9.238,31.209c-0.258,1.576,2.15,2.252,2.412,0.664
			c1.771-10.771,7.031-20.541,9.238-31.207C162.359,123.992,159.949,123.322,159.623,124.9L159.623,124.9z"/>
	</g>
</g>
<g>
	<g>
		<path fill="#342214" d="M146.305,118.209c0.291,0.514,0.582,1.025,0.873,1.537c2.315-7.168,4.836-14.284,6.161-21.721
			c0.281-1.574-2.129-2.248-2.411-0.663l0,0c-1.326,7.438-3.847,14.552-6.162,21.722c-0.195,0.605,0.223,1.42,0.873,1.537
			c6.168,1.105,12.116,3.004,18.17,4.584c5.692,1.484,11.565,1.561,17.069,3.828c0.797,0.328,1.543-0.479,1.584-1.207
			c0.418-7.66,5.17-14.217,5.062-21.977c-0.008-0.681-0.562-1.25-1.25-1.25c-6.943-0.002-13.611-2.249-20.246-4.078
			c-4.275-1.179-8.832-3.154-13.348-2.826c-1.599,0.116-1.609,2.617,0,2.5c5.075-0.369,10.432,2.19,15.293,3.42
			c6.114,1.548,11.926,3.481,18.301,3.483c-0.416-0.417-0.832-0.833-1.25-1.25c0.106,7.705-4.644,14.318-5.062,21.978
			c0.525-0.402,1.056-0.805,1.582-1.207c-4.967-2.047-10.301-2.535-15.543-3.502"/>
	</g>
</g>
<g>
	<g>
		<path fill="#342214" d="M123.412,115.486c-12.83,4.652-25.881,0.029-33.511-11.186c-1.802-2.648-6.137-0.15-4.317,2.523
			c8.816,12.958,24.156,18.921,39.158,13.482C127.748,119.217,126.451,114.385,123.412,115.486L123.412,115.486z"/>
	</g>
</g>
<g>
	<g>
		<g>
			<defs>
				<path id="SVGID_1_" d="M21,0c-1.104,0-2,0.895-2,1.997v221.007c0,1.102,0.888,1.996,2,1.996h6c1.104,0,2-0.895,2-1.996V1.997
					C29,0.894,28.113,0,27,0H21z"/>
			</defs>
			<clipPath id="SVGID_2_">
				<use xlink:href="#SVGID_1_"  overflow="visible"/>
			</clipPath>
			<rect x="14" y="-5" clip-path="url(#SVGID_2_)" fill="#372212" width="20" height="235"/>
		</g>
	</g>
</g>
<g>
	<g>
		<g>
			<defs>
				
					<rect id="SVGID_3_" x="37.501" y="11.501" transform="matrix(-0.7071 -0.7071 0.7071 -0.7071 44.2662 98.3365)" width="9.999" height="56.998"/>
			</defs>
			<clipPath id="SVGID_4_">
				<use xlink:href="#SVGID_3_"  overflow="visible"/>
			</clipPath>
			<rect x="13.812" y="11.312" clip-path="url(#SVGID_4_)" fill="#372212" width="57.376" height="57.377"/>
		</g>
	</g>
</g>
<g>
	<g>
		<g>
			<defs>
				<path id="SVGID_5_" d="M93.863,15c-1.658,0-4.348,0-6.004,0H5.999C4.895,15,4,15.888,4,17v6c0,1.104,0.896,2,1.995,2h123.011
					c1.103,0,1.994-0.888,1.994-2v-6c0-1.104-0.895-2-1.99-2H93.863z"/>
			</defs>
			<clipPath id="SVGID_6_">
				<use xlink:href="#SVGID_5_"  overflow="visible"/>
			</clipPath>
			<rect x="-1" y="10" clip-path="url(#SVGID_6_)" fill="#372212" width="137" height="20"/>
		</g>
	</g>
</g>
<g>
	<g>
		<g>
			<defs>
				<path id="SVGID_7_" d="M2.003,221C1.449,221,1,221.443,1,222v3c0,0.553,0.45,1,1.003,1h44.993c0.554,0,1.003-0.443,1.003-1v-3
					c0-0.553-0.45-1-1.003-1H2.003z"/>
			</defs>
			<clipPath id="SVGID_8_">
				<use xlink:href="#SVGID_7_"  overflow="visible"/>
			</clipPath>
			<rect x="-4" y="216" clip-path="url(#SVGID_8_)" fill="#372212" width="57" height="15"/>
		</g>
	</g>
</g>
<g>
	<g>
		<g>
			<defs>
				<rect id="SVGID_9_" x="127" y="23" width="4" height="34"/>
			</defs>
			<clipPath id="SVGID_10_">
				<use xlink:href="#SVGID_9_"  overflow="visible"/>
			</clipPath>
			<rect x="122" y="18" clip-path="url(#SVGID_10_)" fill="#372212" width="14" height="44"/>
		</g>
	</g>
</g>
<g>
	<g>
		<path fill="#362111" d="M153.875,115.125c0.262-3.034,0.726-6.038,1.205-9.042c0.252-1.577-2.156-2.253-2.41-0.665
			c-0.516,3.226-1.015,6.452-1.295,9.708C151.236,116.732,153.738,116.719,153.875,115.125L153.875,115.125z"/>
	</g>
</g>
<g>
	<g>
		<path fill="#362111" d="M154,106.75c4.476-0.017,4.342,8.043,0.082,7.419c-1.576-0.229-2.255,2.179-0.664,2.411
			c8.073,1.184,8.548-12.36,0.582-12.331C152.388,104.256,152.388,106.756,154,106.75L154,106.75z"/>
	</g>
</g>
<g>
	<g>
		<path fill="#362111" d="M161.75,113.875c0.085-2.406,1.279-4.752,2.329-6.869c-0.762-0.1-1.521-0.199-2.284-0.298
			c0.784,2.468,2.076,4.713,3,7.125c0.57,1.489,2.988,0.843,2.41-0.665c-0.923-2.409-2.217-4.662-3-7.125
			c-0.306-0.962-1.775-1.322-2.284-0.298c-1.257,2.532-2.568,5.258-2.671,8.131C159.193,115.488,161.693,115.482,161.75,113.875
			L161.75,113.875z"/>
	</g>
</g>
<g>
	<g>
		<path fill="#362111" d="M163.869,110.546c-0.533,0.259-1.027,0.405-1.619,0.329c-0.678-0.087-1.25,0.635-1.25,1.25
			c0,0.747,0.574,1.163,1.25,1.25c1.018,0.131,1.982-0.234,2.881-0.671c0.612-0.298,0.772-1.156,0.448-1.71
			C165.216,110.374,164.481,110.248,163.869,110.546L163.869,110.546z"/>
	</g>
</g>
<g>
	<g>
		<path fill="#362111" d="M168.625,116.625c-0.077-2.18,0.446-4.496,1.579-6.369c-0.762-0.1-1.521-0.199-2.284-0.298
			c0.959,2.434,1.375,5.187,3.196,7.176c0.704,0.771,1.751,0.25,2.089-0.551c0.919-2.181,1.497-4.475,2.125-6.75
			c0.43-1.557-1.981-2.217-2.41-0.665c-0.628,2.275-1.206,4.57-2.125,6.75c0.696-0.184,1.394-0.368,2.089-0.551
			c-1.473-1.61-1.774-4.098-2.554-6.074c-0.384-0.975-1.682-1.294-2.284-0.298c-1.351,2.231-2.013,5.03-1.921,7.631
			C166.182,118.232,168.682,118.238,168.625,116.625L168.625,116.625z"/>
	</g>
</g>
<g>
	<g>
		<path fill="#362111" d="M181.509,112.241c-1.023-0.816-2.054-1.846-3.377-2.132c-1.665-0.361-2.722,0.907-3.445,2.208
			c-1.263,2.264-1.662,6.171,0.713,7.852c1.759,1.245,4.071,0.342,5.242-1.262c1.377-1.886,0.313-4.046-1.935-4.363
			c-1.576-0.224-2.255,2.187-0.664,2.411c0.201,0.027,0.461,0.043,0.649,0.125c0.168,0.074,0.124,0.07,0.109,0.027
			c-0.029-0.098-0.009-0.035-0.038,0.078c0.023-0.09-0.163,0.301-0.184,0.325c-0.457,0.564-1.169,0.958-1.775,0.601
			c-1.191-0.702-0.462-3.15-0.139-4.123c0.117-0.352,0.557-1.523,1.007-1.425c0.753,0.163,1.485,0.981,2.067,1.444
			C180.988,115.001,182.771,113.245,181.509,112.241L181.509,112.241z"/>
	</g>
</g>
<g>
	<g>
		<path fill="#362111" d="M118.241,68.134c2.168,1.915,4.331,3.836,6.5,5.75c1.204,1.062,2.979-0.699,1.768-1.768
			c-2.168-1.915-4.33-3.836-6.5-5.75C118.805,65.304,117.03,67.065,118.241,68.134L118.241,68.134z"/>
	</g>
</g>
<g>
	<g>
		<path fill="#362111" d="M120.579,74.131c1.513-2.329,3.477-4.298,5.305-6.372c1.062-1.204-0.698-2.979-1.768-1.768
			c-1.971,2.235-4.066,4.369-5.695,6.878C117.54,74.226,119.705,75.477,120.579,74.131L120.579,74.131z"/>
	</g>
</g>
<g>
	<g>
		<path fill="#362111" d="M131.884,74.384c2.232-2.167,3.894-4.833,6.125-7c1.158-1.125-0.61-2.891-1.768-1.768
			c-2.232,2.167-3.893,4.833-6.125,7C128.958,73.741,130.727,75.507,131.884,74.384L131.884,74.384z"/>
	</g>
</g>
<g>
	<g>
		<path fill="#362111" d="M130.366,67.884c2.328,2.087,4.517,4.327,7.128,6.07c1.345,0.898,2.595-1.268,1.262-2.158
			c-2.429-1.623-4.457-3.738-6.622-5.68C130.938,65.043,129.164,66.805,130.366,67.884L130.366,67.884z"/>
	</g>
</g>
<g>
	<g>
		<path fill="#362111" d="M119.25,87.917c0.429-4.44,5.745-7.278,9.74-5.438c2.806,1.293,3.774,5.033,4.305,7.77
			c0.308,1.582,2.717,0.91,2.411-0.665c-0.843-4.349-3.169-9.759-8.292-10.138c-5.245-0.389-10.146,3.122-10.663,8.471
			C116.595,89.521,119.096,89.506,119.25,87.917L119.25,87.917z"/>
	</g>
</g>
</svg>
